<?xml version="1.0" standalone="no"?>
<!DOCTYPE svg PUBLIC "-//W3C//DTD SVG 20010904//EN"
 "http://www.w3.org/TR/2001/REC-SVG-20010904/DTD/svg10.dtd">
<svg version="1.0" xmlns="http://www.w3.org/2000/svg"
 width="1024.000000pt" height="1024.000000pt" viewBox="0 0 1024.000000 1024.000000"
 preserveAspectRatio="xMidYMid meet">

<g transform="translate(0.000000,1024.000000) scale(0.100000,-0.100000)"
fill="#000000" stroke="none">
<path d="M8794 8827 c-273 -277 -623 -496 -1159 -724 -205 -88 -369 -154 -443
-179 -100 -35 -111 -28 -81 49 11 27 18 51 16 53 -5 5 -137 -97 -225 -174 -52
-45 -99 -71 -280 -151 -119 -54 -309 -143 -422 -199 -200 -98 -208 -103 -325
-208 -130 -116 -277 -235 -283 -229 -12 12 41 75 131 156 163 148 312 278 336
295 12 9 131 60 265 114 332 134 360 149 438 224 37 35 92 78 122 95 54 32 96
68 62 55 -9 -3 -16 -1 -16 6 0 6 -5 8 -11 4 -7 -4 -9 0 -6 12 13 45 27 133 29
178 1 35 -3 52 -15 61 -14 10 -17 29 -17 94 0 50 -6 96 -15 118 -8 19 -15 52
-15 72 0 21 -5 64 -10 97 -6 32 -13 74 -16 92 -7 42 -22 41 -40 -5 -121 -301
-339 -541 -689 -760 -254 -159 -493 -287 -511 -272 -6 5 -15 42 -19 80 l-7 71
-22 -53 c-53 -129 -138 -227 -351 -404 -123 -103 -175 -153 -175 -168 0 -11
-110 -261 -153 -347 -26 -54 -37 -66 -59 -68 -32 -4 -33 -10 -14 -99 l14 -63
-28 0 c-15 0 -30 6 -33 13 -2 7 -25 23 -51 35 -25 13 -46 27 -46 31 0 5 11 20
24 34 19 21 23 35 22 81 l-1 56 -65 0 c-76 0 -152 25 -222 72 -25 18 -46 35
-46 38 3 31 -5 49 -24 55 -13 3 -18 9 -11 11 6 3 30 -4 52 -16 39 -19 41 -19
41 -2 0 14 -13 20 -68 30 -37 6 -78 8 -91 5 -16 -4 -22 -2 -18 4 4 6 -1 10
-10 9 -10 0 -19 6 -21 16 -2 11 8 20 35 28 21 7 70 30 109 51 42 23 79 37 88
33 22 -9 83 22 102 51 19 29 11 96 -13 116 -16 14 -29 3 -79 -73 -14 -23 -45
-49 -77 -65 -48 -25 -61 -27 -172 -28 -69 0 -133 5 -150 12 -16 6 -47 14 -69
18 -21 3 -36 9 -33 12 3 3 -15 23 -41 46 -26 22 -39 38 -29 34 9 -3 17 -2 17
3 0 6 10 10 23 10 13 0 34 11 47 25 13 14 29 25 35 25 15 0 55 43 55 58 0 18
-25 14 -44 -7 -18 -20 -54 -31 -186 -56 -91 -17 -248 -30 -195 -16 29 7 29 8
-18 15 -47 8 -68 23 -50 35 6 3 15 15 21 27 6 12 36 34 67 49 30 16 55 32 55
37 0 4 -16 8 -36 8 -34 0 -128 -43 -164 -75 -17 -16 -79 -31 -160 -40 -60 -6
-81 -11 -122 -27 -23 -8 -26 -13 -17 -29 6 -13 21 -19 42 -19 43 0 245 -37
279 -51 15 -6 26 -14 24 -18 -2 -3 4 -44 14 -91 11 -47 19 -88 19 -91 2 -21
-270 108 -297 141 l-19 24 -12 -22 c-7 -12 -57 -52 -111 -88 -55 -35 -102 -69
-105 -74 -3 -5 22 -14 55 -21 33 -6 60 -14 60 -18 0 -3 -27 -15 -60 -25 -33
-11 -79 -32 -102 -48 -53 -35 -68 -35 -68 -2 0 38 39 161 56 175 8 6 14 19 14
28 1 15 2 15 13 0 7 -9 17 -14 23 -12 7 2 19 -3 28 -13 15 -15 18 -15 41 0 14
9 25 20 25 25 0 5 20 31 45 58 25 26 45 51 45 55 0 20 -58 116 -91 150 -21 22
-49 58 -61 81 -13 22 -27 39 -33 38 -6 -1 -9 -31 -6 -77 3 -63 -1 -83 -20
-125 -13 -27 -30 -49 -37 -49 -7 0 -12 -7 -10 -16 2 -9 -12 -24 -34 -37 l-36
-22 -54 38 c-29 21 -84 63 -122 93 -37 30 -72 54 -77 54 -25 0 24 -69 111
-155 93 -91 98 -98 85 -119 -7 -11 -16 -48 -20 -81 -7 -67 -30 -179 -85 -415
-20 -88 -28 -126 -29 -147 -1 -7 -8 -13 -16 -13 -27 0 -16 -20 20 -37 34 -16
35 -18 35 -79 l0 -62 -44 -26 c-25 -14 -47 -26 -51 -26 -3 0 -3 39 1 88 4 48
3 84 -1 79 -5 -4 -9 -15 -10 -25 0 -9 -9 -30 -19 -45 -10 -15 -20 -48 -22 -72
-3 -40 2 -53 49 -123 29 -42 59 -91 66 -109 22 -55 79 -101 148 -123 59 -18
67 -18 100 -5 50 21 62 42 63 107 0 31 4 68 9 81 7 17 57 52 171 118 89 52
198 115 242 142 45 26 83 47 84 47 19 0 74 -202 74 -269 0 -22 -11 -66 -25
-98 -33 -78 -82 -272 -96 -380 -6 -49 -11 -142 -11 -207 -1 -100 -4 -125 -20
-153 -17 -28 -19 -42 -12 -95 4 -35 7 -69 5 -76 -1 -8 2 -19 8 -26 8 -9 6 -13
-7 -13 -20 0 -64 31 -57 41 3 3 2 4 -1 1 -11 -8 -65 36 -85 69 l-19 31 0 -36
c0 -20 -3 -51 -6 -68 -6 -30 -9 -31 -56 -31 -35 0 -58 6 -75 20 -14 11 -29 20
-34 20 -4 0 -45 -51 -92 -112 -79 -105 -235 -266 -370 -382 -40 -35 -53 -52
-45 -58 9 -5 6 -8 -9 -8 -13 0 -43 -15 -67 -32 -47 -34 -48 -39 -30 -100 4
-14 0 -18 -18 -18 -30 0 -73 -45 -82 -85 l-6 -30 17 23 c10 13 27 35 39 49
l21 26 51 -23 c29 -13 52 -24 52 -25 0 -2 -23 -26 -50 -54 -49 -51 -51 -52
-95 -46 -44 7 -44 7 -49 -26 -10 -66 -16 -248 -10 -287 l6 -40 47 1 46 2 3
-50 c2 -42 -2 -58 -25 -92 -25 -38 -126 -153 -192 -221 -29 -30 -65 -82 -56
-82 8 0 -52 -51 -92 -78 -17 -12 -36 -22 -42 -22 -16 0 -93 -55 -127 -92 -29
-30 -74 -103 -74 -119 0 -3 11 -4 24 -2 31 6 80 -25 66 -42 -6 -7 -6 -15 1
-22 7 -7 -4 -18 -37 -37 -44 -25 -50 -26 -78 -12 -16 8 -37 11 -47 8 -30 -12
-99 -105 -99 -134 0 -17 -7 -31 -20 -38 -11 -6 -39 -32 -63 -57 -46 -50 -56
-91 -22 -85 44 8 186 14 200 8 14 -5 14 -9 0 -33 -9 -16 -27 -43 -41 -62 -15
-22 -21 -38 -15 -44 5 -5 54 -8 108 -5 75 3 107 8 132 23 39 23 44 36 60 158
19 147 41 181 126 201 50 12 72 33 135 126 77 115 159 202 337 356 135 118
142 126 149 169 5 34 15 52 40 75 35 30 52 35 111 31 35 -3 162 29 233 59 44
17 135 37 385 80 86 15 134 29 170 50 27 15 79 40 115 54 36 15 90 47 120 71
64 53 81 59 158 53 51 -4 74 -14 221 -103 90 -54 185 -106 210 -116 60 -22
343 -79 395 -79 59 0 191 24 338 60 165 40 175 37 254 -87 182 -285 204 -312
418 -530 l208 -212 -11 -33 c-16 -44 -84 -157 -147 -243 -60 -83 -232 -251
-338 -330 l-74 -56 5 -53 c4 -34 1 -56 -6 -60 -19 -12 -12 -24 12 -19 20 5 20
4 -7 -26 -35 -37 -36 -37 -36 -10 0 13 4 18 13 13 7 -5 6 0 -3 11 -13 16 -15
16 -18 2 -2 -10 -7 -17 -12 -17 -19 0 -62 -55 -107 -133 -25 -45 -61 -106 -80
-134 -50 -80 -46 -85 42 -57 81 26 155 40 155 31 0 -4 -16 -35 -35 -70 -47
-85 -46 -91 13 -84 69 8 135 40 150 71 6 15 15 71 18 125 6 85 5 99 -10 104
-13 5 -16 22 -16 95 0 86 0 88 29 105 16 9 43 17 61 17 41 0 71 32 133 141 61
109 109 164 226 260 140 116 143 110 32 -57 -85 -129 -186 -236 -338 -362 -69
-57 -96 -86 -103 -110 -9 -33 -4 -66 9 -60 4 2 38 16 75 32 l68 30 84 127 c87
132 112 159 327 337 91 76 98 89 72 138 -8 16 -15 34 -15 41 0 20 48 51 90 58
21 4 41 12 43 20 3 7 -10 36 -29 64 -28 42 -32 52 -19 57 8 3 12 10 9 15 -3 6
5 7 20 3 25 -6 26 -5 17 18 -5 14 -34 62 -64 109 -65 100 -107 177 -107 196 0
20 67 163 87 185 10 11 30 18 51 18 33 0 53 -18 282 -248 136 -136 254 -258
263 -272 21 -33 41 -186 35 -269 -4 -51 -16 -90 -54 -171 -46 -99 -90 -187
-129 -255 -17 -30 -17 -32 3 -78 18 -41 53 -73 97 -91 12 -5 -36 -42 -48 -38
-5 1 -6 -2 -2 -8 4 -6 -4 -23 -17 -38 -19 -22 -30 -26 -60 -24 -28 2 -38 -1
-42 -15 -4 -15 -33 -183 -52 -300 -6 -39 4 -41 78 -19 25 8 48 13 51 10 2 -2
0 -29 -6 -59 -16 -97 -1 -104 103 -49 79 41 96 68 80 124 -5 19 -10 62 -10 96
0 34 -7 81 -15 104 -23 66 -20 77 29 98 51 23 53 30 86 197 29 144 75 295 149
488 34 86 61 167 61 180 0 14 -9 36 -20 50 -28 36 -26 89 5 123 29 31 31 40 9
48 -27 10 -51 7 -64 -9 -7 -9 -19 -14 -27 -11 -8 4 -11 1 -8 -5 7 -10 -21 -49
-35 -49 -5 0 -10 7 -13 14 -4 11 -1 13 10 9 11 -4 14 -2 9 5 -5 8 -1 10 11 5
16 -6 16 -5 4 10 -7 9 -9 17 -3 17 5 0 12 9 15 21 3 12 10 18 16 14 23 -14 9
15 -33 66 -72 89 -135 188 -141 223 -6 31 21 121 129 423 35 97 47 359 22 466
-9 38 -16 87 -16 110 -1 60 -28 112 -102 192 -74 80 -87 101 -81 125 4 15 19
17 136 15 172 -4 224 -21 405 -130 118 -72 156 -89 237 -110 120 -31 150 -47
171 -87 20 -39 14 -101 -21 -213 -19 -62 -25 -102 -25 -176 l0 -95 44 -60 c24
-32 46 -74 50 -93 3 -19 32 -72 64 -118 31 -47 72 -110 90 -140 41 -67 103
-109 175 -118 30 -4 98 -28 157 -56 145 -67 192 -71 326 -27 55 18 111 41 125
50 24 17 24 18 5 33 -12 9 -41 15 -70 15 -52 0 -123 13 -134 24 -11 11 16 28
80 50 75 25 192 106 214 148 18 35 12 48 -13 26 -37 -31 -113 -67 -113 -53 0
20 -24 25 -115 25 -114 0 -180 25 -237 89 -100 112 -99 265 4 374 59 62 70
148 43 342 -13 95 -31 162 -61 232 -8 17 -14 34 -14 38 0 9 -54 85 -79 112
-12 12 -21 27 -21 33 0 5 -5 10 -11 10 -5 0 -7 4 -4 10 3 6 2 10 -3 10 -5 0
-21 11 -36 25 -15 14 -32 22 -38 19 -6 -4 -8 -3 -5 2 3 6 -8 19 -24 29 -16 11
-29 23 -29 27 0 5 21 -8 46 -27 25 -20 55 -40 65 -46 38 -20 20 32 -31 91 -79
91 -201 144 -345 150 -147 7 -188 -10 -60 -25 57 -6 131 -34 93 -35 -9 0 -24
-3 -34 -7 -12 -4 -15 -3 -10 5 4 8 2 10 -8 6 -8 -3 -24 0 -36 6 -12 6 -30 13
-41 15 -12 2 -30 7 -42 10 -17 5 -19 4 -7 -4 24 -16 2 -26 -26 -11 -21 12 -22
15 -9 20 13 4 6 15 -30 54 l-47 48 -106 -5 c-59 -3 -123 -10 -143 -15 -19 -5
-49 -7 -66 -5 -36 6 -135 -32 -237 -90 -118 -67 -229 -115 -316 -135 -94 -23
-128 -20 -180 13 -21 13 -63 34 -94 47 -31 14 -54 26 -52 29 2 2 -9 4 -24 5
-16 1 -36 8 -45 18 -9 9 -23 16 -32 16 -8 0 -27 8 -41 18 -15 10 -49 30 -77
43 -48 23 -62 24 -297 29 -135 3 -249 7 -252 10 -3 3 115 6 262 5 l267 0 101
-48 c110 -52 114 -53 114 -34 0 33 49 58 181 91 74 19 142 37 152 41 29 12 19
42 -28 81 -53 43 -50 50 30 83 l56 23 70 -22 c107 -35 172 -26 339 47 161 69
166 79 78 132 -32 18 -55 38 -52 43 3 4 36 24 73 43 38 19 71 40 74 48 3 8 22
18 43 22 104 19 404 153 404 180 0 7 -8 20 -18 27 -26 18 -40 48 -34 70 3 12
41 36 108 68 125 60 202 125 368 309 138 152 168 190 159 204 -3 6 -31 7 -69
3 -35 -4 -64 -3 -64 1 1 23 64 99 221 268 37 39 106 131 155 204 72 108 86
135 77 149 -8 12 -23 16 -52 15 -52 -2 -54 14 -8 82 34 51 37 56 55 92 12 22
3 34 -52 68 -14 9 -8 19 39 74 75 88 116 220 131 417 6 70 4 87 -8 97 -22 17
-30 90 -19 160 12 68 1 107 -29 107 -25 0 -25 2 1 95 20 76 22 122 4 118 -6
-1 -17 -4 -26 -8 -15 -6 -16 2 -14 61 2 37 9 72 14 77 12 12 15 157 4 157 -5
0 -53 -47 -109 -103z m-1117 -1583 c-3 -3 -12 -4 -19 -1 -8 3 -5 6 6 6 11 1
17 -2 13 -5z m-3687 -190 c14 -13 45 -41 69 -62 l44 -38 3 -335 c1 -185 -1
-318 -5 -299 -7 29 -9 31 -10 10 -2 -24 -2 -24 -16 -6 -9 12 -26 19 -45 18
-16 0 -30 3 -30 8 0 4 -16 11 -36 14 -19 4 -38 14 -41 22 -3 8 -11 13 -18 10
-7 -2 -15 5 -19 16 -4 18 -7 19 -20 9 -9 -8 -14 -17 -11 -21 3 -5 1 -11 -5
-15 -5 -3 -10 -5 -10 -3 0 3 27 211 55 418 25 192 46 291 59 283 6 -3 22 -17
36 -29z m-725 -5 c38 -6 39 -7 7 -8 -18 0 -45 -9 -59 -18 -26 -17 -27 -17 -20
0 4 10 7 25 7 33 0 10 5 12 13 7 6 -4 30 -10 52 -14z m1125 -69 c18 -12 2 -12
-25 0 -13 6 -15 9 -5 9 8 0 22 -4 30 -9z m-1290 -40 c0 -13 -7 -20 -20 -20
-22 0 -28 25 -7 33 22 10 27 7 27 -13z m1443 -137 c30 -15 31 -15 18 0 -12 15
-11 17 4 17 12 0 16 -6 12 -20 -4 -15 5 -29 39 -54 24 -18 41 -36 37 -39 -3
-3 -22 9 -42 28 -20 19 -39 35 -42 35 -3 0 -20 11 -39 25 -39 29 -33 32 13 8z
m157 -108 c0 -2 -9 -3 -19 -2 -11 0 -18 5 -15 9 4 6 34 0 34 -7z m370 -89 c0
-2 -8 -10 -17 -17 -16 -13 -17 -12 -4 4 13 16 21 21 21 13z m-178 -41 c99 0
94 -12 -10 -21 -75 -7 -148 10 -120 27 7 5 20 5 28 1 8 -4 54 -7 102 -7z m-97
-273 c-3 -3 -11 0 -18 7 -9 10 -8 11 6 5 10 -3 15 -9 12 -12z m-2090 -52 c10
-11 16 -20 13 -20 -3 0 -13 9 -23 20 -10 11 -16 20 -13 20 3 0 13 -9 23 -20z
m2165 -120 c11 -7 6 -10 -20 -10 -26 0 -31 3 -20 10 8 5 17 10 20 10 3 0 12
-5 20 -10z m88 -17 c-10 -2 -26 -2 -35 0 -10 3 -2 5 17 5 19 0 27 -2 18 -5z
m-120 -282 c9 -5 -16 -16 -73 -30 -48 -12 -135 -41 -193 -65 -189 -77 -295
-123 -361 -156 -35 -17 -65 -29 -68 -27 -4 5 15 16 98 58 21 10 50 31 65 47
34 33 178 112 206 112 10 0 45 11 77 25 44 18 76 24 131 24 40 0 77 4 83 10
13 13 18 13 35 2z m-48 -150 c7 -17 10 -36 8 -43 -3 -7 -2 -25 2 -39 4 -14 4
-50 -1 -79 -5 -35 -5 -58 2 -66 8 -10 1 -15 -28 -22 -179 -45 -488 -123 -678
-172 -126 -33 -245 -60 -263 -60 -30 0 -31 2 -20 20 7 11 17 20 23 20 6 0 18
8 26 18 22 24 50 45 81 61 15 8 28 25 32 42 4 21 10 27 21 23 16 -7 48 13 41
25 -3 4 16 18 42 31 26 14 53 30 60 37 23 22 144 89 222 123 149 65 295 107
381 109 31 1 38 -3 49 -28z m-1000 -451 c0 -5 -5 -10 -11 -10 -5 0 -7 5 -4 10
3 6 8 10 11 10 2 0 4 -4 4 -10z m4166 -60 c15 -6 24 -13 22 -16 -8 -8 -58 7
-58 17 0 11 3 11 36 -1z m137 -28 c-4 -10 -8 -12 -11 -4 -2 8 -18 10 -45 7
-39 -4 -39 -4 -9 4 18 5 35 11 38 14 12 11 33 -5 27 -21z m102 -28 c34 -17 41
-23 22 -19 -19 4 -26 2 -22 -5 3 -5 2 -10 -3 -10 -14 0 -33 26 -25 33 6 6 -20
11 -39 8 -5 0 -8 6 -8 14 0 16 5 15 75 -21z m-4770 16 c-3 -6 1 -13 9 -16 9
-3 16 -11 16 -16 0 -6 -7 -5 -15 2 -9 7 -18 10 -22 6 -10 -10 4 -18 31 -18 17
0 23 -5 19 -14 -3 -8 -1 -14 3 -14 12 0 35 51 28 61 -8 13 36 -13 94 -55 29
-21 49 -43 45 -49 -4 -6 0 -8 9 -4 16 6 64 -24 99 -61 13 -15 15 -22 6 -31 -8
-8 -6 -11 7 -11 16 0 17 -2 5 -17 -12 -15 -12 -16 1 -8 13 7 13 6 2 -7 -8 -10
-9 -19 -3 -22 5 -4 12 -2 16 4 3 5 15 10 26 10 10 0 19 4 19 10 0 5 -6 8 -12
6 -7 -1 -9 -1 -4 2 4 2 2 9 -5 14 -10 6 -6 7 11 3 14 -4 36 -14 49 -24 13 -9
40 -26 60 -39 28 -18 30 -22 11 -17 -24 7 -24 7 -5 -8 11 -8 23 -13 27 -11 10
6 78 -28 73 -36 -3 -4 8 -10 23 -14 15 -3 37 -14 49 -23 20 -16 22 -22 13 -53
-20 -74 -27 -75 -111 -12 -42 31 -87 64 -99 72 -12 8 -41 29 -64 45 -22 17
-58 41 -78 55 -20 13 -35 27 -32 31 2 4 -7 10 -21 13 -14 4 -25 11 -25 17 0 6
-4 8 -9 5 -4 -3 -22 7 -39 22 -35 31 -53 44 -100 72 -20 12 -30 25 -26 32 5 7
3 8 -5 3 -7 -4 -22 1 -34 13 -12 11 -32 25 -44 31 -20 10 -24 25 -14 59 1 1 6
2 12 2 5 0 7 -5 4 -10z m4540 -40 c3 -6 -1 -7 -9 -4 -18 7 -21 14 -7 14 6 0
13 -4 16 -10z m-782 -135 c9 -4 17 -11 17 -15 0 -10 -129 -65 -192 -81 l-45
-12 -62 48 c-33 26 -61 50 -61 52 0 19 300 26 343 8z m-4065 -104 c-17 -46
-320 -352 -334 -338 -7 7 17 57 58 119 41 62 117 132 206 191 56 37 77 45 70
28z m252 -53 c25 -27 64 -101 73 -139 5 -19 -3 -45 -28 -94 -19 -36 -35 -80
-35 -96 0 -52 -17 -74 -117 -153 -57 -44 -68 -49 -138 -57 -97 -10 -110 -15
-132 -43 -15 -18 -32 -24 -83 -29 -75 -7 -94 -23 -104 -90 -7 -49 -29 -73 -88
-99 -35 -17 -37 -16 -33 2 2 11 0 20 -6 20 -5 0 -9 -5 -9 -11 0 -5 -5 -7 -11
-4 -7 5 -5 15 6 31 9 14 13 29 9 35 -10 17 -5 158 7 177 6 9 32 31 57 47 33
21 64 56 106 120 33 50 85 115 117 146 86 83 341 259 375 259 7 0 23 -10 34
-22z m1632 -147 l173 -8 -199 -1 c-172 -2 -197 0 -186 12 6 8 18 12 25 9 8 -2
92 -8 187 -12z m-2402 -101 c0 -5 -2 -10 -4 -10 -3 0 -8 5 -11 10 -3 6 -1 10
4 10 6 0 11 -4 11 -10z m65 -140 c-10 -11 -20 -18 -23 -15 -7 6 18 35 31 35 5
0 2 -9 -8 -20z m11 -498 c-4 -3 -14 2 -24 12 -16 18 -16 18 6 6 13 -6 21 -14
18 -18z m188 20 c3 -5 -12 -26 -33 -46 -35 -35 -39 -36 -55 -21 -23 23 -21 28
22 53 40 23 58 27 66 14z m46 -6 c0 -2 -7 -9 -15 -16 -12 -10 -15 -10 -15 4 0
9 7 16 15 16 8 0 15 -2 15 -4z m-341 -323 c-14 -16 -65 -72 -114 -127 -50 -54
-108 -120 -131 -148 -22 -27 -50 -56 -62 -64 l-22 -15 18 33 c43 82 147 207
229 276 89 73 127 94 82 45z m-460 -440 c0 -5 -13 -18 -29 -30 -24 -20 -29
-21 -34 -7 -4 9 -1 23 5 30 12 15 59 20 58 7z"/>
<path d="M3500 5060 c0 -6 7 -10 15 -10 8 0 15 2 15 4 0 2 -7 6 -15 10 -8 3
-15 1 -15 -4z"/>
<path d="M3695 4940 c-3 -5 1 -13 10 -16 22 -9 29 1 11 15 -10 8 -16 9 -21 1z"/>
<path d="M3860 4841 c0 -9 30 -24 36 -18 2 1 -6 8 -16 15 -11 7 -20 8 -20 3z"/>
<path d="M3790 4825 c7 -8 16 -15 21 -15 5 0 6 7 3 15 -4 8 -13 15 -21 15 -13
0 -13 -3 -3 -15z"/>
<path d="M3847 4796 c-4 -9 3 -13 21 -13 15 0 21 2 14 4 -6 3 -10 9 -6 14 3 5
-1 9 -9 9 -8 0 -17 -6 -20 -14z"/>
<path d="M3905 4768 c5 -18 4 -19 -4 -8 -5 8 -13 11 -18 7 -4 -5 -1 -12 7 -17
23 -14 27 -12 32 15 4 17 1 25 -9 25 -10 0 -12 -7 -8 -22z"/>
<path d="M2891 7430 c0 -14 6 -36 14 -50 18 -31 18 -7 0 40 -12 31 -14 32 -14
10z"/>
<path d="M2930 7315 c7 -8 17 -15 22 -15 6 0 5 7 -2 15 -7 8 -17 15 -22 15 -6
0 -5 -7 2 -15z"/>
<path d="M4265 7290 c-3 -5 -2 -10 4 -10 5 0 13 5 16 10 3 6 2 10 -4 10 -5 0
-13 -4 -16 -10z"/>
<path d="M4534 7116 c-10 -8 -16 -17 -13 -20 9 -9 59 11 59 24 0 14 -23 12
-46 -4z"/>
<path d="M4390 7046 c0 -2 7 -7 16 -10 8 -3 12 -2 9 4 -6 10 -25 14 -25 6z"/>
<path d="M1800 6574 c0 -3 5 -15 11 -26 10 -19 9 -20 -7 -13 -11 4 -30 10 -43
13 l-23 5 18 -29 c10 -16 35 -51 56 -79 20 -27 46 -71 56 -96 21 -48 87 -132
196 -249 533 -572 597 -637 644 -663 78 -42 83 -33 21 37 -23 26 -40 49 -37
51 2 2 31 -14 63 -35 62 -41 95 -50 95 -26 0 16 -64 86 -79 86 -6 0 -11 4 -11
9 0 9 -88 107 -180 202 -19 19 -89 94 -155 165 -66 71 -154 165 -195 209 -41
44 -99 107 -130 140 -58 63 -143 153 -233 248 -51 53 -67 65 -67 51z"/>
</g>
</svg>
