<?xml version="1.0" standalone="no"?>
<!DOCTYPE svg PUBLIC "-//W3C//DTD SVG 20010904//EN"
 "http://www.w3.org/TR/2001/REC-SVG-20010904/DTD/svg10.dtd">
<svg version="1.0" xmlns="http://www.w3.org/2000/svg"
 width="592.000000pt" height="421.000000pt" viewBox="0 0 592.000000 421.000000"
 preserveAspectRatio="xMidYMid meet">

<g transform="translate(0.000000,421.000000) scale(0.100000,-0.100000)"
fill="#000000" stroke="none">
<path d="M2093 3988 c-34 -38 -73 -102 -73 -119 0 -9 7 -22 15 -29 11 -9 13
-16 5 -24 -14 -14 -13 -41 3 -55 8 -6 41 -15 75 -19 49 -7 74 -18 124 -53 53
-37 70 -44 111 -44 45 0 47 -1 53 -33 9 -47 61 -95 133 -123 34 -13 61 -27 61
-30 0 -4 -35 -18 -77 -33 -280 -97 -352 -133 -430 -218 -23 -26 -53 -69 -67
-97 -25 -48 -76 -190 -76 -209 0 -6 32 -16 70 -23 39 -7 70 -16 70 -21 0 -4
-37 -8 -82 -8 -129 0 -156 -24 -223 -200 -37 -97 -58 -131 -78 -125 -99 29
-332 110 -436 151 -73 30 -143 54 -155 54 -11 0 -37 -17 -58 -37 -20 -21 -46
-46 -57 -55 -29 -25 -26 -45 13 -84 l33 -33 -42 5 c-58 8 -106 -19 -300 -166
-88 -67 -208 -155 -266 -196 -58 -40 -124 -93 -147 -118 -23 -25 -61 -53 -84
-64 -45 -19 -97 -71 -123 -122 -12 -23 -13 -30 -3 -30 7 0 58 -7 113 -15 151
-22 152 -22 164 23 6 20 11 49 11 64 0 20 8 32 28 42 15 8 65 54 111 101 99
101 267 231 363 279 62 32 143 54 154 43 3 -2 20 -77 39 -166 36 -172 65 -243
116 -280 21 -16 29 -30 29 -54 1 -76 51 -157 120 -196 l42 -23 -4 158 -4 159
-38 8 c-26 7 -40 17 -47 35 -5 13 -7 27 -4 30 2 3 -14 25 -36 49 -22 25 -50
64 -60 89 -23 51 -36 139 -22 147 14 9 105 -17 176 -51 34 -16 120 -66 191
-112 202 -130 284 -160 432 -160 l76 0 -7 -29 c-3 -16 -1 -47 6 -69 11 -37 18
-43 89 -76 284 -130 433 -164 735 -171 105 -3 224 -7 267 -10 49 -4 78 -2 83
4 3 6 13 11 21 11 8 0 13 -4 9 -9 -3 -5 -10 -33 -15 -62 -23 -123 53 -266 212
-396 197 -161 301 -238 362 -270 171 -87 185 -109 222 -363 30 -210 47 -287
74 -339 22 -44 61 -78 99 -88 14 -3 43 -23 64 -44 39 -39 94 -64 160 -73 49
-6 49 10 -1 90 -21 34 -48 85 -62 113 -21 46 -27 51 -49 46 -33 -6 -46 3 -55
39 -4 16 -21 49 -38 73 -16 25 -33 63 -36 85 -4 37 -3 40 13 31 10 -6 41 -41
69 -78 71 -95 92 -109 178 -113 85 -5 86 -12 -10 135 -49 77 -72 103 -87 103
-12 0 -34 14 -51 31 -16 17 -48 42 -71 56 -68 40 -90 73 -102 155 -27 174 -23
162 -62 180 -53 25 -93 76 -154 199 -86 171 -84 226 10 329 76 83 115 183 115
296 0 101 38 109 119 26 60 -62 103 -122 232 -321 45 -70 103 -145 132 -172
29 -26 74 -67 101 -92 l50 -45 -27 -32 c-15 -17 -27 -38 -27 -45 0 -19 83 -90
136 -114 104 -49 213 -33 288 43 53 52 69 99 64 180 -5 77 -30 116 -96 148
-30 14 -53 34 -62 53 -14 28 -20 30 -85 36 -130 12 -181 45 -405 264 -91 88
-188 175 -216 193 -58 37 -154 72 -195 72 -24 0 -32 9 -61 62 -70 131 -179
214 -338 257 -41 11 -146 29 -234 41 -175 23 -256 46 -298 87 -56 54 -45 93
28 93 36 0 51 6 84 36 22 20 40 44 40 54 0 28 11 50 24 50 25 0 90 66 110 111
16 38 31 53 66 72 51 26 80 73 80 128 0 32 4 38 27 44 15 3 40 16 55 27 55 38
47 -5 -8 -47 -19 -14 -34 -33 -34 -41 0 -44 -80 -144 -115 -144 -7 0 -16 -16
-19 -35 -9 -46 -55 -98 -111 -124 -35 -17 -45 -26 -45 -46 0 -33 -51 -88 -106
-114 -24 -12 -42 -26 -39 -30 3 -5 25 -17 50 -27 37 -14 66 -16 156 -12 l111
6 447 -148 c245 -81 463 -150 483 -154 38 -7 113 7 123 23 5 9 -889 311 -920
311 -23 0 -92 32 -79 36 10 4 281 -74 779 -226 310 -95 405 -120 457 -120 43
0 123 29 111 40 -12 11 -202 72 -733 235 -427 132 -531 168 -518 181 4 4 195
-51 773 -221 518 -153 524 -155 588 -155 63 0 127 23 127 46 0 8 -2 14 -5 14
-14 0 -1295 392 -1322 405 -42 19 -46 48 -5 35 15 -5 259 -75 542 -155 283
-80 570 -164 637 -185 184 -60 283 -70 354 -34 66 33 59 38 -129 94 -285 85
-546 162 -877 260 -170 50 -330 98 -355 106 -48 16 -87 40 -78 49 8 8 279 -70
863 -250 276 -85 539 -163 585 -175 96 -22 193 -26 229 -7 27 14 49 43 39 53
-7 7 -240 79 -1043 325 -269 83 -511 155 -537 160 -45 10 -66 24 -55 36 11 10
481 -126 1220 -353 366 -112 412 -124 497 -124 110 0 170 52 170 147 0 38 -3
43 -27 49 -16 3 -33 7 -40 9 -7 2 -139 34 -295 70 -156 36 -328 77 -383 90
-55 13 -199 47 -320 75 -121 28 -256 60 -300 70 -1144 270 -1057 251 -1165
251 -140 0 -172 -20 -297 -189 -95 -129 -202 -246 -246 -269 -25 -13 -31 -13
-53 2 -13 8 -24 20 -24 25 0 10 38 23 56 19 26 -5 34 2 28 26 -5 20 -3 24 10
19 9 -3 16 -10 16 -15 0 -5 5 -9 10 -9 6 0 10 18 10 40 0 29 4 40 15 40 8 0
15 -4 15 -10 0 -5 6 -10 14 -10 14 0 46 67 46 95 0 20 20 29 33 16 6 -6 14
-11 18 -11 10 0 39 77 39 105 0 18 5 25 20 25 16 0 20 7 20 38 0 53 12 69 43
55 14 -7 27 -9 30 -6 8 7 -9 49 -34 82 -30 41 -20 61 31 61 45 0 52 16 20 45
-28 25 -25 32 13 40 56 11 67 16 67 30 0 16 -22 25 -61 25 -42 0 -36 17 11 31
47 14 41 31 -18 50 -60 19 -64 32 -7 24 l50 -7 -42 44 c-45 45 -52 62 -30 71
6 3 32 19 56 37 50 36 46 43 -29 55 -56 8 -132 30 -160 45 -18 9 -25 8 -40 -5
-18 -16 -21 -16 -52 8 -18 13 -54 34 -80 45 -40 17 -49 18 -59 6 -15 -18 -56
-18 -109 1 -30 11 -85 15 -189 15 -97 0 -164 5 -201 15 -78 21 -113 19 -137
-7z m58 -128 c-27 -23 -81 -27 -81 -7 0 22 11 27 59 27 l46 -1 -24 -19z m424
-2 c13 -31 45 -36 52 -9 6 23 45 29 73 11 12 -7 12 -12 -4 -29 -38 -42 -133
-39 -186 5 -41 35 -38 44 13 44 34 0 44 -4 52 -22z m-319 -72 c15 -12 17 -17
6 -28 -10 -10 -19 -9 -47 6 -19 11 -35 23 -35 28 0 13 55 9 76 -6z m264 -483
c-1 -5 -40 -27 -88 -50 -48 -23 -109 -59 -137 -80 -53 -41 -115 -132 -115
-169 0 -13 -4 -34 -10 -48 -8 -21 -16 -26 -46 -26 -35 0 -35 1 -29 33 13 61
63 155 106 197 56 54 112 87 212 121 85 30 107 34 107 22z m-1266 -807 c38
-26 104 -44 264 -75 60 -11 112 -27 123 -37 55 -50 -10 -45 -227 16 -99 28
-215 63 -259 78 l-80 27 60 6 c33 3 65 6 72 7 7 1 28 -9 47 -22z m3752 -1250
c74 -63 -22 -211 -131 -204 -35 3 -43 8 -60 40 -19 36 -19 37 -1 57 24 27 46
27 46 0 0 -11 5 -17 10 -14 6 3 10 17 10 31 0 13 5 24 10 24 6 0 10 -4 10 -10
0 -5 5 -10 10 -10 6 0 10 11 10 25 0 27 9 32 28 13 9 -9 12 -3 12 30 0 48 8
51 46 18z"/>
<path d="M5485 3889 c-277 -48 -498 -87 -1000 -179 -297 -55 -634 -115 -750
-134 -291 -49 -387 -76 -479 -137 -39 -26 -102 -97 -93 -105 1 -1 39 3 85 9
102 13 207 2 448 -49 90 -19 175 -34 188 -34 30 0 63 40 72 86 4 23 14 38 33
46 16 8 39 39 63 83 20 38 41 71 47 73 15 5 15 6 -25 -73 -40 -78 -61 -105
-81 -105 -7 0 -13 -8 -13 -18 0 -10 -14 -39 -30 -65 -17 -26 -30 -51 -30 -56
0 -5 17 -11 38 -14 20 -4 120 -30 222 -58 341 -96 352 -98 435 -98 57 0 92 5
121 18 78 35 65 41 -98 42 -84 1 -166 5 -183 9 -40 10 -37 10 265 19 229 6
260 9 302 28 31 14 52 32 63 53 l17 32 -144 -6 c-564 -24 -707 -28 -724 -18
-26 15 40 20 561 42 394 18 479 35 513 106 8 19 13 37 9 40 -3 4 -68 1 -144
-5 -76 -6 -293 -22 -483 -36 -190 -14 -354 -27 -365 -30 -25 -7 -69 21 -45 28
15 5 232 22 635 52 402 30 425 33 481 60 53 26 80 56 94 106 11 39 71 42 -620
-31 -279 -30 -541 -47 -528 -35 8 8 189 33 398 55 505 53 707 80 810 110 53
15 99 47 111 77 5 15 9 50 7 77 -3 51 -3 51 -38 53 -19 1 -84 -7 -145 -18z"/>
<path d="M3897 1214 c-8 -8 57 -138 91 -183 l25 -34 14 26 c20 40 20 109 -1
141 -25 39 -108 71 -129 50z"/>
</g>
</svg>
